<svg xmlns="http://www.w3.org/2000/svg" width="57.063" height="39.62" viewBox="0 0 57.063 39.62">
  <g id="Group_1657" data-name="Group 1657" transform="translate(-252.128 -314.408)">
    <path id="Path_61" data-name="Path 61" d="M391.433,416.242a26.743,26.743,0,0,1-4.76,5.561c-4.222,3.726-9.142,5.794-13.552,5.794a12.309,12.309,0,0,1-1.47-.087c11.3,5.633,23.931-3.406,25.882-8.472A33.921,33.921,0,0,0,391.433,416.242Z" transform="translate(-88.341 -75.268)" fill="#00a651"/>
    <path id="Path_62" data-name="Path 62" d="M262.958,421.8a26.741,26.741,0,0,1-4.76-5.561,34.151,34.151,0,0,0-6.07,2.78c1.951,5.066,14.586,14.12,25.882,8.472a12.671,12.671,0,0,1-1.485.087C272.1,427.6,267.18,425.544,262.958,421.8Z" transform="translate(0 -75.268)" fill="#faa227"/>
    <path id="Path_63" data-name="Path 63" d="M345.1,325.7l.64-.481.64.481a13.732,13.732,0,0,1,1.907,1.776,26.128,26.128,0,0,1,2.984-4.236,16.677,16.677,0,0,0-5.546-8.836,16.622,16.622,0,0,0-5.546,8.836,26.2,26.2,0,0,1,3,4.236A13.06,13.06,0,0,1,345.1,325.7Z" transform="translate(-65.08)" fill="#00aeef"/>
    <path id="Path_64" data-name="Path 64" d="M385.183,333.659c-4.222.626-8.443,3.96-11.412,8.851a19.61,19.61,0,0,1,3.159,6.2c.451-.466.9-.917,1.4-1.339a23.8,23.8,0,0,1,8.487-4.92.437.437,0,0,0,.291-.422A17.331,17.331,0,0,0,385.183,333.659Z" transform="translate(-89.909 -14.229)" fill="#92278f"/>
    <path id="Path_65" data-name="Path 65" d="M299.916,333.659a17.455,17.455,0,0,0-1.922,8.37.437.437,0,0,0,.291.422,23.806,23.806,0,0,1,8.487,4.92c.495.437.961.888,1.412,1.354a19.88,19.88,0,0,1,3.144-6.2C308.359,337.633,304.138,334.285,299.916,333.659Z" transform="translate(-33.901 -14.229)" fill="#8dc63f"/>
    <path id="Path_66" data-name="Path 66" d="M351.271,369.781a16.676,16.676,0,0,0-5.546-8.836,16.622,16.622,0,0,0-5.546,8.836,26.612,26.612,0,0,1,4.4,7.017,29.711,29.711,0,0,1,1.135,3.13,29.773,29.773,0,0,1,1.135-3.13A27.485,27.485,0,0,1,351.271,369.781Z" transform="translate(-65.08 -34.397)" fill="#ef4136"/>
    <path id="Path_67" data-name="Path 67" d="M363.834,390.918a.5.5,0,0,1-.291-.451c-.015-.539,0-1.063.029-1.6.379-4.978,3.3-10.452,7.875-14.513,5.2-4.6,11.558-6.521,16.318-4.949.364,5.459-2.693,11.879-7.89,16.478C374.781,390.408,368.565,392.329,363.834,390.918Z" transform="translate(-82.345 -40.248)" fill="#1c75bc"/>
    <path id="Path_68" data-name="Path 68" d="M290.277,390.918a.5.5,0,0,0,.291-.451c.014-.539,0-1.063-.029-1.6-.379-4.978-3.3-10.452-7.89-14.513-5.2-4.6-11.558-6.521-16.318-4.949-.364,5.459,2.707,11.879,7.9,16.478C279.33,390.408,285.546,392.329,290.277,390.918Z" transform="translate(-10.476 -40.248)" fill="#ec008c"/>
  </g>
</svg>
